# xmcd
#
# Track frame offsets:
#	150
#	1502
#	22130
#	47924
#	63008
#	75088
#	76396
#	100246
#	101107
#	117086
#	126576
#	140946
#	169518
#	185538
#	208368
#	210115
#	227201
#	228971
#
# Disc length: 3311 seconds
#
# Revision: 0
# Processed by: cddbd v1.4PL0 Copyright (c) Steve Scherf et al.
# Submitted via: EasyCDDAExtractor 5.0.4.1
#
DISCID=eb0ced12
DTITLE=The Ford Blues Band - In Memory of Michael Bloomfield
DYEAR=2002
DGENRE=Blues
TTITLE0=Interview
TTITLE1=Killing My Love
TTITLE2=59th Street Bridge Song (Feelin' Groovy)
TTITLE3=Stop
TTITLE4=Next Time You See Me
TTITLE5=Interview
TTITLE6=I Got A Mind To Give Up Living
TTITLE7=Interview
TTITLE8=Groovin' Is Easy
TTITLE9=Peter's Trip
TTITLE10=The Ones I Loved Are Gone
TTITLE11=It's About Time
TTITLE12=Jimi the Fox
TTITLE13=Mary Ann
TTITLE14=Interview
TTITLE15=Blues With a Feeling
TTITLE16=Interview
TTITLE17=Blues for MB
EXTD=
EXTT0=
EXTT1=
EXTT2=
EXTT3=
EXTT4=
EXTT5=
EXTT6=
EXTT7=
EXTT8=
EXTT9=
EXTT10=
EXTT11=
EXTT12=
EXTT13=
EXTT14=
EXTT15=
EXTT16=
EXTT17=
PLAYORDER=
